<svg width="20" height="23" viewBox="0 0 20 23" fill="none" xmlns="http://www.w3.org/2000/svg">
<path id="Vector" d="M6.625 4.5L10 1M10 1L13.375 4.5M10 1V12.6667M4.37526 9.16667C3.32689 9.16667 2.80271 9.16667 2.38922 9.34423C1.83791 9.58107 1.39963 10.0356 1.17127 10.6074C1 11.0361 1 11.5794 1 12.6667V18.2667C1 19.5734 1 20.2264 1.24524 20.7255C1.46095 21.1645 1.8049 21.5222 2.22828 21.7459C2.7091 22 3.33886 22 4.59652 22H15.4041C16.6617 22 17.2906 22 17.7714 21.7459C18.1947 21.5222 18.5393 21.1645 18.755 20.7255C19 20.2269 19 19.5745 19 18.2703V12.6667C19 11.5794 18.9999 11.0361 18.8287 10.6074C18.6003 10.0356 18.1623 9.58107 17.6111 9.34423C17.1975 9.16667 16.6734 9.16667 15.625 9.16667" stroke="#7E7E7E" stroke-linecap="round" stroke-linejoin="round"/>
</svg>
